{
  "accessors": [
    {
      "bufferView": 2,
      "componentType": 5126,
      "count": 3624,
      "max": [
        0.59192198514938354,
        0.36802899837493896,
        0.9904940128326416
      ],
      "min": [
        -0.59192198514938354,
        -0.0090634403750300407,
        -0.60600101947784424
      ],
      "type": "VEC3"
    },
    {
      "bufferView": 2,
      "byteOffset": 43488,
      "componentType": 5126,
      "count": 3624,
      "max": [
        0.99983876943588257,
        0.9999728798866272,
        0.99956661462783813
      ],
      "min": [
        -0.99980348348617554,
        -0.85954517126083374,
        -0.99980449676513672
      ],
      "type": "VEC3"
    },
    {
      "bufferView": 3,
      "componentType": 5126,
      "count": 3624,
      "max": [
        0.99936401844024658,
        0.99939697980880737,
        0.99811100959777832,
        1
      ],
      "min": [
        -0.99707198143005371,
        -0.99063098430633545,
        -0.99988400936126709,
        -1
      ],
      "type": "VEC4"
    },
    {
      "bufferView": 1,
      "componentType": 5126,
      "count": 3624,
      "max": [
        0.99717801809310913,
        0.99896198511123657
      ],
      "min": [
        0.65790700912475586,
        0.00044271801016293466
      ],
      "type": "VEC2"
    },
    {
      "bufferView": 0,
      "componentType": 5125,
      "count": 17424,
      "max": [
        3623
      ],
      "min": [
        0
      ],
      "type": "SCALAR"
    },
    {
      "bufferView": 2,
      "byteOffset": 86976,
      "componentType": 5126,
      "count": 18878,
      "max": [
        0.72730600833892822,
        0.53033900260925293,
        1
      ],
      "min": [
        -0.72730600833892822,
        -0.53033900260925293,
        -1
      ],
      "type": "VEC3"
    },
    {
      "bufferView": 2,
      "byteOffset": 313512,
      "componentType": 5126,
      "count": 18878,
      "max": [
        0.99831700325012207,
        0.99998235702514648,
        0.99520885944366455
      ],
      "min": [
        -0.99831700325012207,
        -0.9999920129776001,
        -0.99937349557876587
      ],
      "type": "VEC3"
    },
    {
      "bufferView": 3,
      "byteOffset": 57984,
      "componentType": 5126,
      "count": 18878,
      "max": [
        1,
        0.99692100286483765,
        0.9976159930229187,
        1
      ],
      "min": [
        -0.95911800861358643,
        -0.99692398309707642,
        -0.99998700618743896,
        1
      ],
      "type": "VEC4"
    },
    {
      "bufferView": 1,
      "byteOffset": 28992,
      "componentType": 5126,
      "count": 18878,
      "max": [
        0.9995570182800293,
        0.9911460280418396
      ],
      "min": [
        0.00044271801016293466,
        0.00044271801016293466
      ],
      "type": "VEC2"
    },
    {
      "bufferView": 0,
      "byteOffset": 69696,
      "componentType": 5125,
      "count": 102708,
      "max": [
        18877
      ],
      "min": [
        0
      ],
      "type": "SCALAR"
    }
  ],
  "asset": {
    "extras": {
      "author": "Multipainkiller Studio (https://sketchfab.com/Multipainkiller_Studio)",
      "license": "CC-BY-4.0 (http://creativecommons.org/licenses/by/4.0/)",
      "source": "https://sketchfab.com/models/ffdc746cabc647259fc494c151dc3d8f",
      "title": "Guy Fawkes Mask - v.1 FREE"
    },
    "generator": "Sketchfab-3.19.6",
    "version": "2.0"
  },
  "bufferViews": [
    {
      "buffer": 0,
      "byteLength": 480528,
      "byteOffset": 0,
      "name": "floatBufferViews",
      "target": 34963
    },
    {
      "buffer": 0,
      "byteLength": 180016,
      "byteOffset": 480528,
      "byteStride": 8,
      "name": "floatBufferViews",
      "target": 34962
    },
    {
      "buffer": 0,
      "byteLength": 540048,
      "byteOffset": 660544,
      "byteStride": 12,
      "name": "floatBufferViews",
      "target": 34962
    },
    {
      "buffer": 0,
      "byteLength": 360032,
      "byteOffset": 1200592,
      "byteStride": 16,
      "name": "floatBufferViews",
      "target": 34962
    }
  ],
  "buffers": [
    {
      "byteLength": 1560624,
      "uri": "scene.bin"
    }
  ],
  "images": [
    {
      "uri": "textures/M_Goatee_baseColor.jpeg"
    },
    {
      "uri": "textures/M_Goatee_normal.jpeg"
    },
    {
      "uri": "textures/M_Goatee_metallicRoughness.png"
    },
    {
      "uri": "textures/M_Mask_baseColor.jpeg"
    },
    {
      "uri": "textures/M_Mask_normal.jpeg"
    },
    {
      "uri": "textures/M_Mask_metallicRoughness.png"
    }
  ],
  "materials": [
    {
      "doubleSided": false,
      "name": "M_Mask",
      "normalTexture": {
        "index": 4,
        "scale": 1,
        "texCoord": 0
      },
      "occlusionTexture": {
        "index": 5,
        "strength": 1,
        "texCoord": 0
      },
      "pbrMetallicRoughness": {
        "baseColorFactor": [
          1,
          1,
          1,
          1
        ],
        "baseColorTexture": {
          "index": 3,
          "texCoord": 0
        },
        "metallicFactor": 1,
        "metallicRoughnessTexture": {
          "index": 5,
          "texCoord": 0
        },
        "roughnessFactor": 1
      }
    },
    {
      "doubleSided": false,
      "name": "M_Goatee",
      "normalTexture": {
        "index": 1,
        "scale": 1,
        "texCoord": 0
      },
      "occlusionTexture": {
        "index": 2,
        "strength": 1,
        "texCoord": 0
      },
      "pbrMetallicRoughness": {
        "baseColorFactor": [
          1,
          1,
          1,
          1
        ],
        "baseColorTexture": {
          "index": 0,
          "texCoord": 0
        },
        "metallicFactor": 1,
        "metallicRoughnessTexture": {
          "index": 2,
          "texCoord": 0
        },
        "roughnessFactor": 1
      }
    }
  ],
  "meshes": [
    {
      "name": "defaultMaterial",
      "primitives": [
        {
          "attributes": {
            "NORMAL": 1,
            "POSITION": 0,
            "TANGENT": 2,
            "TEXCOORD_0": 3
          },
          "indices": 4,
          "material": 1,
          "mode": 4
        }
      ]
    },
    {
      "name": "defaultMaterial",
      "primitives": [
        {
          "attributes": {
            "NORMAL": 6,
            "POSITION": 5,
            "TANGENT": 7,
            "TEXCOORD_0": 8
          },
          "indices": 9,
          "material": 0,
          "mode": 4
        }
      ]
    }
  ],
  "nodes": [
    {
      "children": [
        1
      ],
      "name": "RootNode (gltf orientation matrix)",
      "rotation": [
        -0.70710678118654746,
        -0,
        -0,
        0.70710678118654757
      ]
    },
    {
      "children": [
        2
      ],
      "name": "RootNode (model correction matrix)"
    },
    {
      "children": [
        3,
        5
      ],
      "matrix": [
        1,
        0,
        0,
        0,
        0,
        -4.3711390063094768e-08,
        0.999999999999999,
        0,
        0,
        -0.999999999999999,
        -4.3711390063094768e-08,
        0,
        0,
        0,
        0,
        1
      ],
      "name": "Collada visual scene group"
    },
    {
      "children": [
        4
      ],
      "name": "SM_GuyFawkes_Mask"
    },
    {
      "mesh": 0,
      "name": "defaultMaterial"
    },
    {
      "children": [
        6
      ],
      "name": "SM_GuyFawkes_Mask"
    },
    {
      "mesh": 1,
      "name": "defaultMaterial"
    }
  ],
  "samplers": [
    {
      "magFilter": 9729,
      "minFilter": 9987,
      "wrapS": 10497,
      "wrapT": 10497
    }
  ],
  "scene": 0,
  "scenes": [
    {
      "name": "OSG_Scene",
      "nodes": [
        0
      ]
    }
  ],
  "textures": [
    {
      "sampler": 0,
      "source": 0
    },
    {
      "sampler": 0,
      "source": 1
    },
    {
      "sampler": 0,
      "source": 2
    },
    {
      "sampler": 0,
      "source": 3
    },
    {
      "sampler": 0,
      "source": 4
    },
    {
      "sampler": 0,
      "source": 5
    }
  ]
}

